<svg width="24" height="24" viewBox="0 0 24 24" fill="none" xmlns="http://www.w3.org/2000/svg">
<g id="Cash">
<g id="Group">
<path id="Path" d="M11.9998 2.99609C15.5911 2.99609 18.5025 5.90746 18.5025 9.4988C18.5025 13.0901 15.5911 16.0015 11.9998 16.0015C8.40843 16.0015 5.49707 13.0901 5.49707 9.4988C5.49707 5.90746 8.40843 2.99609 11.9998 2.99609" stroke="#323232" stroke-width="1.5" stroke-linecap="round" stroke-linejoin="round"/>
<path id="Path_2" d="M6.99805 16.0022H17.0022" stroke="#323232" stroke-width="1.5" stroke-linecap="round" stroke-linejoin="round"/>
<path id="Path_3" d="M12.0002 7.02148V6.19573" stroke="#323232" stroke-width="1.5" stroke-linecap="round" stroke-linejoin="round"/>
<path id="Path_4" d="M12.0002 11.976V12.8018" stroke="#323232" stroke-width="1.5" stroke-linecap="round" stroke-linejoin="round"/>
<path id="Path_5" d="M10.5687 11.3864C10.7809 11.7486 11.1679 11.9725 11.5877 11.9759H12.496C13.0908 11.9908 13.5997 11.5518 13.6723 10.9613C13.7449 10.3708 13.3574 9.82161 12.7768 9.69199L11.2293 9.30307C10.6554 9.16861 10.2746 8.62394 10.3454 8.03878C10.4161 7.45363 10.9157 7.01539 11.5051 7.02155H12.4134C12.8336 7.02439 13.2211 7.24844 13.4332 7.61112" stroke="#323232" stroke-width="1.5" stroke-linecap="round" stroke-linejoin="round"/>
<path id="Path_6" d="M18.0032 12H19.0028C20.1078 12 21.0036 12.8958 21.0036 14.0008V19.0029C21.0036 20.1079 20.1078 21.0037 19.0028 21.0037H4.99693C3.8919 21.0037 2.99609 20.1079 2.99609 19.0029V14.0008C2.99609 12.8958 3.8919 12 4.99693 12H5.99646" stroke="#323232" stroke-width="1.5" stroke-linecap="round" stroke-linejoin="round"/>
</g>
</g>
</svg>
