<svg width="24" height="24" viewBox="0 0 24 24" fill="none" xmlns="http://www.w3.org/2000/svg">
<g id="Credit-card">
<g id="Group">
<path id="Path" d="M2.99609 7.99826H21.0036" stroke="#323232" stroke-width="2" stroke-linecap="round" stroke-linejoin="round"/>
<path id="Path_2" d="M9.49909 12.0002H6.99805" stroke="#323232" stroke-width="2" stroke-linecap="round" stroke-linejoin="round"/>
<path id="Path_3" d="M17.0026 13.001C19.2127 13.001 21.0043 14.7926 21.0043 17.0026C21.0043 19.2127 19.2127 21.0043 17.0026 21.0043C14.7926 21.0043 13.001 19.2127 13.001 17.0026C13.001 14.7926 14.7926 13.001 17.0026 13.001" stroke="#323232" stroke-width="2" stroke-linecap="round" stroke-linejoin="round"/>
<path id="Path_4" d="M18.5586 16.2246L16.6138 18.1694L15.4453 17.0019" stroke="#323232" stroke-width="2" stroke-linecap="round" stroke-linejoin="round"/>
<path id="Path_5" d="M9.99901 18.0029H5.99734C4.3398 18.0029 2.99609 16.6592 2.99609 15.0017V6.99832C2.99609 5.34078 4.3398 3.99707 5.99734 3.99707H18.0023C19.6599 3.99707 21.0036 5.34078 21.0036 6.99832V11" stroke="#323232" stroke-width="2" stroke-linecap="round" stroke-linejoin="round"/>
</g>
</g>
</svg>
