<svg width="18" height="18" viewBox="0 0 18 18" fill="none" xmlns="http://www.w3.org/2000/svg">
<path d="M6.18916 9.09762C6.18916 7.48919 7.49347 6.18496 9.10286 6.18496C10.7123 6.18496 12.0173 7.48919 12.0173 9.09762C12.0173 10.706 10.7123 12.0103 9.10286 12.0103C7.49347 12.0103 6.18916 10.706 6.18916 9.09762ZM4.61369 9.09762C4.61369 11.5755 6.62349 13.5841 9.10286 13.5841C11.5822 13.5841 13.592 11.5755 13.592 9.09762C13.592 6.61973 11.5822 4.61114 9.10286 4.61114C6.62349 4.61114 4.61369 6.61973 4.61369 9.09762ZM12.7207 4.43325C12.7206 4.64061 12.782 4.84335 12.8972 5.01582C13.0124 5.18828 13.1762 5.32273 13.3679 5.40217C13.5596 5.4816 13.7705 5.50245 13.974 5.46207C14.1775 5.4217 14.3645 5.32192 14.5113 5.17534C14.6581 5.02877 14.7581 4.84199 14.7986 4.63862C14.8392 4.43526 14.8185 4.22443 14.7392 4.03282C14.6598 3.84121 14.5254 3.6774 14.353 3.56213C14.1805 3.44685 13.9777 3.38528 13.7702 3.38519H13.7698C13.4916 3.38532 13.2249 3.49577 13.0282 3.69228C12.8315 3.88879 12.7209 4.15529 12.7207 4.43325ZM5.57089 16.2095C4.71853 16.1708 4.25524 16.0289 3.94737 15.909C3.5392 15.7502 3.24797 15.561 2.94177 15.2554C2.63557 14.9498 2.44603 14.6591 2.28783 14.2511C2.16781 13.9436 2.02583 13.4804 1.98709 12.6286C1.9447 11.7076 1.93624 11.431 1.93624 9.09769C1.93624 6.76442 1.9454 6.48853 1.98709 5.56678C2.0259 4.71494 2.16893 4.2527 2.28783 3.94424C2.44673 3.53631 2.63599 3.24526 2.94177 2.93924C3.24755 2.63323 3.5385 2.44381 3.94737 2.2857C4.2551 2.16575 4.71853 2.02386 5.57089 1.98513C6.49242 1.94278 6.76924 1.93432 9.10286 1.93432C11.4365 1.93432 11.7136 1.94347 12.6359 1.98513C13.4882 2.02393 13.9508 2.16687 14.2594 2.2857C14.6676 2.44381 14.9588 2.63365 15.265 2.93924C15.5712 3.24484 15.76 3.53631 15.9189 3.94424C16.039 4.25179 16.1809 4.71494 16.2197 5.56678C16.2621 6.48853 16.2705 6.76442 16.2705 9.09769C16.2705 11.431 16.2621 11.7068 16.2197 12.6286C16.1809 13.4804 16.0382 13.9434 15.9189 14.2511C15.76 14.6591 15.5708 14.9501 15.265 15.2554C14.9592 15.5608 14.6676 15.7502 14.2594 15.909C13.9517 16.0289 13.4882 16.1708 12.6359 16.2095C11.7144 16.2519 11.4375 16.2604 9.10286 16.2604C6.76819 16.2604 6.49214 16.2519 5.57089 16.2095ZM5.4985 0.413264C4.56781 0.455623 3.93184 0.603108 3.37645 0.819093C2.80126 1.04214 2.31434 1.34137 1.82776 1.82688C1.34119 2.3124 1.04255 2.7998 0.819368 3.37464C0.603253 3.93005 0.45568 4.56528 0.413296 5.49542C0.370213 6.42702 0.360352 6.72486 0.360352 9.09762C0.360352 11.4704 0.370213 11.7682 0.413296 12.6998C0.45568 13.63 0.603253 14.2652 0.819368 14.8206C1.04255 15.3951 1.34126 15.883 1.82776 16.3684C2.31427 16.8537 2.80126 17.1525 3.37645 17.3761C3.93289 17.5921 4.56781 17.7396 5.4985 17.782C6.43115 17.8243 6.72868 17.8349 9.10286 17.8349C11.477 17.8349 11.7751 17.825 12.7072 17.782C13.638 17.7396 14.2735 17.5921 14.8293 17.3761C15.4041 17.1525 15.8914 16.8539 16.378 16.3684C16.8645 15.8828 17.1625 15.3951 17.3864 14.8206C17.6025 14.2652 17.7507 13.63 17.7924 12.6998C17.8348 11.7675 17.8447 11.4704 17.8447 9.09762C17.8447 6.72486 17.8348 6.42702 17.7924 5.49542C17.75 4.56521 17.6025 3.9297 17.3864 3.37464C17.1625 2.80015 16.8638 2.31317 16.378 1.82688C15.8922 1.3406 15.4041 1.04214 14.83 0.819093C14.2735 0.603108 13.6379 0.454924 12.7079 0.413264C11.7758 0.370906 11.4777 0.360352 9.10356 0.360352C6.72937 0.360352 6.43115 0.370207 5.4985 0.413264Z" fill="white"/>
</svg>
