<svg width="24" height="24" viewBox="0 0 24 24" fill="none" xmlns="http://www.w3.org/2000/svg">
<path d="M12 16.7923C13.7333 15.4077 15.0416 14.0779 15.925 12.8029C16.8083 11.5279 17.25 10.3102 17.25 9.14998C17.25 8.17144 17.0711 7.33706 16.7135 6.64683C16.3558 5.95661 15.9125 5.39772 15.3836 4.97015C14.8548 4.54258 14.2851 4.23233 13.6746 4.03938C13.064 3.84643 12.5058 3.74995 12 3.74995C11.4941 3.74995 10.9359 3.84643 10.3254 4.03938C9.71484 4.23233 9.14515 4.54258 8.6163 4.97015C8.08745 5.39772 7.64418 5.95661 7.2865 6.64683C6.9288 7.33706 6.74995 8.17144 6.74995 9.14998C6.74995 10.3102 7.19162 11.5279 8.07495 12.8029C8.9583 14.0779 10.2666 15.4077 12 16.7923ZM12 18.6923C9.73331 17.0038 8.04165 15.3686 6.925 13.7865C5.80833 12.2045 5.25 10.6589 5.25 9.14983C5.25 8.01001 5.45448 7.01066 5.86345 6.15178C6.27243 5.29289 6.7985 4.57307 7.44165 3.9923C8.0848 3.41153 8.80834 2.97596 9.61228 2.68558C10.4162 2.39519 11.2121 2.25 12 2.25C12.7878 2.25 13.5837 2.39519 14.3877 2.68558C15.1916 2.97596 15.9152 3.41153 16.5583 3.9923C17.2015 4.57307 17.7275 5.29289 18.1365 6.15178C18.5455 7.01066 18.75 8.01001 18.75 9.14983C18.75 10.6589 18.1916 12.2045 17.075 13.7865C15.9583 15.3686 14.2666 17.0038 12 18.6923ZM12 10.75C12.4859 10.75 12.899 10.5798 13.2394 10.2394C13.5798 9.89901 13.75 9.48588 13.75 8.99998C13.75 8.51408 13.5798 8.10094 13.2394 7.76058C12.899 7.42019 12.4859 7.25 12 7.25C11.5141 7.25 11.1009 7.42019 10.7606 7.76058C10.4202 8.10094 10.25 8.51408 10.25 8.99998C10.25 9.48588 10.4202 9.89901 10.7606 10.2394C11.1009 10.5798 11.5141 10.75 12 10.75ZM5.25 21.75V20.25H18.75V21.75H5.25Z" fill="#323232"/>
</svg>
