<svg width="16" height="16" viewBox="0 0 16 16" fill="none" xmlns="http://www.w3.org/2000/svg">
<path d="M12.5961 11.5956L9.06108 15.1316C8.92178 15.271 8.75638 15.3816 8.57433 15.457C8.39228 15.5325 8.19714 15.5713 8.00008 15.5713C7.80302 15.5713 7.60788 15.5325 7.42583 15.457C7.24378 15.3816 7.07838 15.271 6.93908 15.1316L3.40408 11.5956C2.80046 10.992 2.32163 10.2755 1.99492 9.4869C1.66822 8.69829 1.50005 7.85306 1.5 6.99946C1.49995 6.14585 1.66804 5.3006 1.99465 4.51196C2.32127 3.72331 2.80002 3.00672 3.40358 2.4031C4.00713 1.79948 4.72367 1.32065 5.51228 0.993948C6.30089 0.667245 7.14612 0.49907 7.99973 0.499023C8.85333 0.498977 9.69858 0.667061 10.4872 0.993677C11.2759 1.32029 11.9925 1.79905 12.5961 2.4026C13.1998 3.00619 13.6786 3.72279 14.0053 4.51146C14.332 5.30013 14.5002 6.14544 14.5002 6.9991C14.5002 7.85277 14.332 8.69807 14.0053 9.48674C13.6786 10.2754 13.1998 10.992 12.5961 11.5956ZM11.5361 3.4636C10.5983 2.5258 9.32634 1.99794 8.00008 1.99794C6.67382 1.99794 5.40189 2.5248 4.46408 3.4626C3.52627 4.40041 2.99942 5.67235 2.99942 6.9986C2.99942 8.32486 3.52627 9.5968 4.46408 10.5346L8.00008 14.0696L11.5361 10.5356C12.0005 10.0713 12.3689 9.52004 12.6203 8.91332C12.8716 8.30661 13.001 7.65632 13.001 6.9996C13.001 6.34288 12.8716 5.6926 12.6203 5.08588C12.3689 4.47917 12.0005 3.92791 11.5361 3.4636ZM8.00008 8.9996C7.73374 9.00562 7.46888 8.95838 7.22105 8.86063C6.97323 8.76289 6.74743 8.61661 6.55691 8.4304C6.36639 8.24419 6.21499 8.02179 6.11161 7.77626C6.00822 7.53073 5.95493 7.26702 5.95486 7.00061C5.9548 6.73421 6.00796 6.47047 6.11122 6.22489C6.21448 5.97931 6.36577 5.75684 6.55619 5.57053C6.74662 5.38422 6.97235 5.23783 7.22012 5.13996C7.4679 5.04209 7.73274 4.99471 7.99908 5.0006C8.52164 5.01216 9.01891 5.22783 9.38445 5.60144C9.74998 5.97506 9.95473 6.47692 9.95486 6.99961C9.95499 7.5223 9.7505 8.02427 9.38515 8.39807C9.0198 8.77187 8.52263 8.98779 8.00008 8.9996Z" fill="white"/>
</svg>
