<svg width="24" height="24" viewBox="0 0 24 24" fill="none" xmlns="http://www.w3.org/2000/svg">
<path d="M13.5128 8.75955C14.3482 9.59489 14.3482 10.9492 13.5128 11.7846C12.6775 12.6199 11.3232 12.6199 10.4878 11.7846C9.6525 10.9492 9.6525 9.59488 10.4878 8.75955C11.3232 7.92422 12.6775 7.92422 13.5128 8.75955" stroke="#323232" stroke-width="1.5" stroke-linecap="round" stroke-linejoin="round"/>
<path d="M19 10V10C19 11.901 18.156 13.704 16.695 14.921L14.4 16.834C13.485 17.597 12.801 18.599 12.424 19.729L12 21L11.576 19.729C11.199 18.599 10.515 17.596 9.6 16.834L7.304 14.921C5.844 13.704 5 11.901 5 10V10V10.036C5 5.66803 8.617 3.13403 12 3.13403C15.383 3.13403 19 5.66803 19 10.036" stroke="#323232" stroke-width="1.5" stroke-linecap="round" stroke-linejoin="round"/>
</svg>
