<svg width="25" height="25" viewBox="0 0 25 25" fill="none" xmlns="http://www.w3.org/2000/svg">
<path d="M2.83057 18.6377C2.83057 18.4388 2.90958 18.248 3.05024 18.1074C3.19089 17.9667 3.38165 17.8877 3.58057 17.8877H22.0806C22.2795 17.8877 22.4702 17.9667 22.6109 18.1074C22.7515 18.248 22.8306 18.4388 22.8306 18.6377C22.8306 18.8366 22.7515 19.0274 22.6109 19.168C22.4702 19.3087 22.2795 19.3877 22.0806 19.3877H3.58057C3.38165 19.3877 3.19089 19.3087 3.05024 19.168C2.90958 19.0274 2.83057 18.8366 2.83057 18.6377Z" fill="black"/>
<path d="M2.83057 13.1377C2.83057 12.9388 2.90958 12.748 3.05024 12.6074C3.19089 12.4667 3.38165 12.3877 3.58057 12.3877H22.0806C22.2795 12.3877 22.4702 12.4667 22.6109 12.6074C22.7515 12.748 22.8306 12.9388 22.8306 13.1377C22.8306 13.3366 22.7515 13.5274 22.6109 13.668C22.4702 13.8087 22.2795 13.8877 22.0806 13.8877H3.58057C3.38165 13.8877 3.19089 13.8087 3.05024 13.668C2.90958 13.5274 2.83057 13.3366 2.83057 13.1377Z" fill="black"/>
<path d="M2.83057 7.6377C2.83057 7.43878 2.90958 7.24802 3.05024 7.10737C3.19089 6.96671 3.38165 6.8877 3.58057 6.8877H22.0806C22.2795 6.8877 22.4702 6.96671 22.6109 7.10737C22.7515 7.24802 22.8306 7.43878 22.8306 7.6377C22.8306 7.83661 22.7515 8.02737 22.6109 8.16803C22.4702 8.30868 22.2795 8.3877 22.0806 8.3877H3.58057C3.38165 8.3877 3.19089 8.30868 3.05024 8.16803C2.90958 8.02737 2.83057 7.83661 2.83057 7.6377Z" fill="black"/>
</svg>
