<svg width="24" height="24" viewBox="0 0 24 24" fill="none" xmlns="http://www.w3.org/2000/svg">
<path d="M11.4666 12.5037V12.2967C11.4666 11.6187 11.8856 11.2517 12.3056 10.9697C12.7156 10.6937 13.1266 10.3337 13.1266 9.66974C13.1266 8.75274 12.3836 8.01074 11.4676 8.01074C10.5516 8.01074 9.80762 8.75174 9.80762 9.66874" stroke="#323232" stroke-width="1.5" stroke-linecap="round" stroke-linejoin="round"/>
<path d="M11.4658 14.8432C11.3828 14.8432 11.3158 14.9102 11.3168 14.9932C11.3168 15.0762 11.3838 15.1432 11.4668 15.1432C11.5498 15.1432 11.6168 15.0762 11.6168 14.9932C11.6168 14.9102 11.5498 14.8432 11.4658 14.8432" stroke="#323232" stroke-width="1.5" stroke-linecap="round" stroke-linejoin="round"/>
<path fill-rule="evenodd" clip-rule="evenodd" d="M15.8628 19.3158C14.5618 20.0458 13.0638 20.4668 11.4668 20.4668C6.4958 20.4668 2.4668 16.4378 2.4668 11.4668C2.4668 6.4958 6.4958 2.4668 11.4668 2.4668C16.4378 2.4668 20.4668 6.4958 20.4668 11.4668C20.4668 13.0648 20.0458 14.5628 19.3158 15.8628L20.4668 20.4668L15.8628 19.3158Z" stroke="#323232" stroke-width="2.2" stroke-linecap="round" stroke-linejoin="round"/>
</svg>
