<svg width="16" height="16" viewBox="0 0 16 16" fill="none" xmlns="http://www.w3.org/2000/svg">
<path fill-rule="evenodd" clip-rule="evenodd" d="M7.07836 8.92134C6.13577 7.97882 5.42521 6.92351 4.95312 5.8529C4.85322 5.62653 4.91203 5.3615 5.08685 5.18669L5.74666 4.52772C6.28723 3.98718 6.28723 3.22269 5.81514 2.75062L4.86933 1.80487C4.24014 1.17572 3.22022 1.17572 2.59102 1.80487L2.06575 2.33011C1.46879 2.92704 1.21985 3.7882 1.38097 4.64212C1.77895 6.74709 3.00189 9.05184 4.97487 11.0247C6.94784 12.9976 9.25274 14.2204 11.3578 14.6184C12.2118 14.7795 13.073 14.5306 13.67 13.9336L14.1944 13.4092C14.8236 12.7801 14.8236 11.7602 14.1944 11.131L13.2494 10.1861C12.7774 9.71403 12.012 9.71403 11.5407 10.1861L10.8132 10.9143C10.6384 11.0891 10.3734 11.148 10.147 11.0481C9.07631 10.5752 8.02094 9.86387 7.07836 8.92134Z" stroke="white" stroke-width="1.2" stroke-linecap="round" stroke-linejoin="round"/>
</svg>
