<svg width="74" height="72" viewBox="0 0 74 72" fill="none" xmlns="http://www.w3.org/2000/svg">
<path fill-rule="evenodd" clip-rule="evenodd" d="M37.0002 72C16.6064 72 0.0771484 55.884 0.0771484 36C0.0771484 16.116 16.6064 0 37.0002 0C57.3941 0 73.9233 16.116 73.9233 36C73.9233 55.884 57.3941 72 37.0002 72Z" fill="#FFE0E0"/>
<path fill-rule="evenodd" clip-rule="evenodd" d="M37 60V60C23.744 60 13 49.256 13 36V36C13 22.744 23.744 12 37 12V12C50.256 12 61 22.744 61 36V36C61 49.256 50.256 60 37 60Z" fill="#EC4700"/>
<path d="M47.6663 30.6665L34.333 43.9998L26.333 35.9998" stroke="white" stroke-width="4" stroke-linecap="round" stroke-linejoin="round"/>
</svg>
