<svg width="14" height="16" viewBox="0 0 14 16" fill="none" xmlns="http://www.w3.org/2000/svg">
<path fill-rule="evenodd" clip-rule="evenodd" d="M10.2116 5.93708C11.1929 6.6347 12.3681 7.00741 13.5721 7.0029V4.61674C13.3354 4.61739 13.0993 4.59206 12.8681 4.54118V6.44215C11.6614 6.44429 10.4845 6.06729 9.50366 5.3644V10.2719C9.5007 11.0772 9.27986 11.8667 8.86457 12.5566C8.44928 13.2466 7.85502 13.8113 7.1448 14.1908C6.43458 14.5704 5.63488 14.7507 4.83049 14.7126C4.02611 14.6745 3.24703 14.4194 2.57586 13.9744C3.19667 14.6026 3.98992 15.0324 4.85515 15.2094C5.72039 15.3864 6.61869 15.3027 7.43631 14.9688C8.25392 14.6349 8.95408 14.066 9.44812 13.3339C9.94215 12.6019 10.2078 11.7397 10.2116 10.8565V5.93708ZM11.0825 3.5032C10.5835 2.9623 10.2773 2.27159 10.2116 1.5386V1.2284H9.54343C9.62602 1.69433 9.80574 2.13766 10.0709 2.52957C10.3361 2.92149 10.6807 3.25322 11.0825 3.5032ZM4.12288 12.0854C3.89131 11.7826 3.7494 11.4208 3.7133 11.0413C3.6772 10.6619 3.74835 10.2798 3.91867 9.93879C4.08899 9.59774 4.35163 9.31135 4.67669 9.11222C5.00176 8.91308 5.3762 8.8092 5.7574 8.8124C5.96786 8.81234 6.17709 8.84453 6.3778 8.90784V6.44215C6.14318 6.41108 5.90654 6.39778 5.66991 6.40238V8.31926C5.18119 8.16477 4.65223 8.1999 4.18824 8.41766C3.72424 8.63542 3.35921 9.01985 3.16575 9.49448C2.97228 9.96912 2.96456 10.4992 3.14412 10.9793C3.32368 11.4593 3.67736 11.8542 4.13481 12.0854H4.12288Z" fill="white"/>
<path fill-rule="evenodd" clip-rule="evenodd" d="M9.50332 5.34849C10.4842 6.05138 11.6611 6.42838 12.8678 6.42624V4.52527C12.1803 4.3799 11.5557 4.02241 11.0822 3.5032C10.6804 3.25322 10.3357 2.92149 10.0706 2.52957C9.8054 2.13766 9.62568 1.69433 9.54309 1.2284H7.78529V10.8565C7.78365 11.2827 7.6486 11.6977 7.39908 12.0432C7.14957 12.3887 6.79812 12.6474 6.39408 12.7829C5.99003 12.9185 5.55368 12.9241 5.14628 12.799C4.73888 12.6739 4.38088 12.4244 4.12254 12.0854C3.71313 11.8788 3.38525 11.5403 3.19181 11.1246C2.99837 10.7088 2.95065 10.24 3.05635 9.79373C3.16205 9.3475 3.415 8.9499 3.77439 8.66506C4.13379 8.38023 4.57866 8.22479 5.03723 8.22381C5.24764 8.22448 5.45676 8.25666 5.65763 8.31926V6.40238C4.78971 6.42321 3.94675 6.69702 3.23223 7.19017C2.51772 7.68333 1.96275 8.37438 1.63544 9.1785C1.30814 9.98262 1.22274 10.8648 1.38974 11.7168C1.55674 12.5687 1.96886 13.3534 2.57552 13.9744C3.24682 14.4226 4.02713 14.6803 4.83332 14.7201C5.63952 14.7599 6.4414 14.5802 7.15355 14.2003C7.86571 13.8203 8.46146 13.2543 8.87736 12.5625C9.29325 11.8707 9.51371 11.0791 9.51525 10.2719L9.50332 5.34849Z" fill="white"/>
<path fill-rule="evenodd" clip-rule="evenodd" d="M12.8678 4.52527L12.868 4.01208C12.2366 4.01477 11.6176 3.83841 11.0825 3.5032C11.5549 4.02391 12.1796 4.3817 12.8678 4.52527ZM9.54343 1.2284C9.54343 1.13693 9.51547 1.04132 9.50354 0.949849V0.639648H7.07762V10.2718C7.07551 10.8111 6.85951 11.3276 6.47702 11.7078C6.09453 12.0881 5.5768 12.3011 5.03746 12.3C4.71988 12.3016 4.40656 12.2282 4.12288 12.0854C4.38122 12.4244 4.73888 12.6739 5.14628 12.799C5.55368 12.9241 5.99003 12.9185 6.39408 12.7829C6.79812 12.6474 7.14957 12.3887 7.39908 12.0432C7.6486 11.6977 7.78365 11.2827 7.78529 10.8565V1.2284H9.54343ZM5.65786 6.39824V5.8534C4.6596 5.71779 3.64485 5.92428 2.77898 6.43922C1.91311 6.95417 1.24717 7.74719 0.889703 8.68906C0.532236 9.63093 0.504315 10.6661 0.81049 11.6259C1.11667 12.5856 1.739 13.4136 2.57586 13.9744C1.97379 13.352 1.56594 12.5674 1.40235 11.717C1.23876 10.8666 1.3264 9.98696 1.65456 9.18554C1.98273 8.38412 2.5372 7.69562 3.25025 7.20417C3.9633 6.71271 4.80405 6.43958 5.66979 6.41812L5.65786 6.39824Z" fill="white"/>
</svg>
