<svg width="24" height="24" viewBox="0 0 24 24" fill="none" xmlns="http://www.w3.org/2000/svg">
<g clip-path="url(#clip0_2344_55390)">
<path d="M12 0C15.1826 0 18.2348 1.26428 20.4853 3.51472C22.7357 5.76516 24 8.8174 24 12C24 15.1826 22.7357 18.2348 20.4853 20.4853C18.2348 22.7357 15.1826 24 12 24C8.8174 24 5.76516 22.7357 3.51472 20.4853C1.26428 18.2348 0 15.1826 0 12C0 8.8174 1.26428 5.76516 3.51472 3.51472C5.76516 1.26428 8.8174 0 12 0ZM2.25 12C2.25 14.5859 3.27723 17.0658 5.10571 18.8943C6.93419 20.7228 9.41414 21.75 12 21.75C14.5859 21.75 17.0658 20.7228 18.8943 18.8943C20.7228 17.0658 21.75 14.5859 21.75 12C21.75 9.41414 20.7228 6.93419 18.8943 5.10571C17.0658 3.27723 14.5859 2.25 12 2.25C9.41414 2.25 6.93419 3.27723 5.10571 5.10571C3.27723 6.93419 2.25 9.41414 2.25 12ZM12.75 7.125V11.613L15.792 12.831C16.0601 12.9479 16.2721 13.1645 16.3832 13.435C16.4942 13.7056 16.4956 14.0087 16.3869 14.2802C16.2783 14.5517 16.0682 14.7703 15.8012 14.8895C15.5341 15.0087 15.2312 15.0193 14.9565 14.919L11.2065 13.419C10.9981 13.3353 10.8194 13.1911 10.6935 13.0051C10.5677 12.819 10.5003 12.5996 10.5 12.375V7.125C10.5 6.82663 10.6185 6.54048 10.8295 6.3295C11.0405 6.11853 11.3266 6 11.625 6C11.9234 6 12.2095 6.11853 12.4205 6.3295C12.6315 6.54048 12.75 6.82663 12.75 7.125Z" fill="#323232"/>
</g>
<defs>
<clipPath id="clip0_2344_55390">
<rect width="24" height="24" fill="white"/>
</clipPath>
</defs>
</svg>
