<svg width="19" height="14" viewBox="0 0 19 14" fill="none" xmlns="http://www.w3.org/2000/svg">
<path fill-rule="evenodd" clip-rule="evenodd" d="M16.9663 0.980701C17.7526 1.19306 18.3707 1.8127 18.5796 2.59815C18.9597 4.02361 18.9597 6.99961 18.9597 6.99961C18.9597 6.99961 18.9597 9.97561 18.5796 11.4011C18.3678 12.1894 17.7497 12.8091 16.9663 13.0185C15.5444 13.3996 9.83973 13.3996 9.83973 13.3996C9.83973 13.3996 4.13791 13.3996 2.71319 13.0185C1.92683 12.8062 1.30877 12.1865 1.09985 11.4011C0.719727 9.97561 0.719727 6.99961 0.719727 6.99961C0.719727 6.99961 0.719727 4.02361 1.09985 2.59815C1.31167 1.80979 1.92973 1.19016 2.71319 0.980701C4.13791 0.599609 9.83973 0.599609 9.83973 0.599609C9.83973 0.599609 15.5444 0.599609 16.9663 0.980701ZM12.7559 6.99961L8.01747 9.74288V4.25634L12.7559 6.99961Z" fill="white"/>
</svg>
